<?xml version="1.0" standalone="no"?>
<!DOCTYPE svg PUBLIC "-//W3C//DTD SVG 20010904//EN"
 "http://www.w3.org/TR/2001/REC-SVG-20010904/DTD/svg10.dtd">
<svg version="1.0" xmlns="http://www.w3.org/2000/svg"
 width="1920.000000pt" height="1920.000000pt" viewBox="0 0 1920.000000 1920.000000"
 preserveAspectRatio="xMidYMid meet">
<metadata>
Created by potrace 1.14, written by Peter Selinger 2001-2017
</metadata>
<g transform="translate(0.000000,1920.000000) scale(0.100000,-0.100000)"
fill="#000000" stroke="none">
<path d="M0 9600 l0 -9600 703 0 702 0 8895 2658 8895 2658 3 6942 2 6942
-9600 0 -9600 0 0 -9600z m12170 2425 c330 -45 583 -132 790 -270 241 -160
389 -355 457 -601 25 -90 27 -114 27 -269 0 -141 -4 -183 -22 -247 -112 -407
-458 -766 -886 -919 -136 -48 -139 -75 -14 -113 370 -113 644 -391 728 -738
60 -245 22 -607 -90 -862 -64 -146 -148 -265 -279 -396 -300 -300 -720 -478
-1312 -556 -193 -25 -638 -30 -819 -10 -250 29 -456 83 -660 173 -224 100
-371 202 -550 382 -168 168 -278 333 -263 391 3 10 136 106 297 213 305 203
344 227 372 227 9 0 69 -54 132 -121 312 -325 554 -444 967 -474 118 -9 314
10 434 41 318 83 555 275 646 524 21 57 28 100 32 181 10 184 -26 280 -151
405 -67 67 -98 89 -176 127 -185 90 -305 107 -769 107 -185 0 -341 4 -355 10
-48 18 -48 25 0 391 24 189 46 351 49 360 10 31 64 37 345 44 302 7 406 16
523 46 157 40 349 141 469 248 98 87 186 229 213 343 62 264 -67 473 -350 565
-68 22 -103 27 -236 31 -374 11 -623 -81 -1058 -393 -86 -61 -164 -114 -174
-118 -42 -16 -72 10 -317 277 -284 308 -280 302 -213 377 129 143 518 372 813
479 210 77 511 142 750 164 101 9 540 -4 650 -19z m-2947 -63 c9 -10 19 -38
23 -63 6 -49 -658 -4710 -677 -4753 -23 -49 -36 -51 -451 -54 -403 -3 -451 1
-489 39 -24 24 -24 62 -1 200 10 58 17 110 14 117 -9 28 -53 8 -148 -65 -198
-154 -329 -229 -507 -288 -137 -46 -264 -65 -432 -65 -362 0 -642 111 -858
339 -187 199 -291 455 -328 810 -15 142 -6 506 15 647 63 418 198 781 407
1094 273 409 629 651 1054 716 136 22 378 14 490 -15 166 -43 356 -164 482
-308 103 -116 158 -123 192 -23 7 19 63 391 126 825 64 435 120 802 126 816 6
15 20 31 32 37 14 7 177 11 468 11 419 1 447 0 462 -17z m8420 0 c9 -10 19
-38 23 -63 6 -49 -658 -4711 -677 -4753 -23 -49 -37 -51 -451 -54 -403 -3
-451 1 -489 39 -24 24 -24 62 -1 200 10 58 17 110 14 117 -9 27 -53 9 -129
-51 -244 -197 -482 -312 -723 -352 -122 -19 -348 -19 -470 0 -368 60 -659 277
-816 609 -52 112 -96 258 -121 402 -23 137 -26 584 -5 734 61 433 199 809 413
1130 273 409 629 651 1054 716 136 22 378 14 490 -15 166 -43 356 -164 482
-308 103 -116 158 -123 192 -23 7 19 50 298 97 620 46 322 98 677 114 790 33
224 41 252 73 268 14 7 177 11 468 11 419 1 447 0 462 -17z m-13928 -1322
c426 -49 766 -231 991 -530 79 -104 185 -314 219 -435 64 -224 88 -502 65
-770 -15 -185 -24 -214 -70 -237 -33 -17 -110 -18 -1190 -18 -1023 0 -1158 -2
-1177 -15 -52 -37 -77 -244 -49 -405 30 -171 113 -300 249 -389 135 -87 271
-123 472 -123 321 1 561 106 827 364 101 98 104 100 143 95 46 -5 529 -228
563 -259 28 -27 29 -72 1 -118 -31 -52 -261 -273 -380 -367 -282 -220 -524
-324 -884 -379 -95 -15 -177 -19 -400 -19 -266 1 -286 2 -406 28 -532 114
-926 439 -1104 914 -108 287 -126 703 -45 1053 55 234 183 528 319 731 335
500 830 812 1394 878 104 12 358 12 462 1z"/>
<path d="M7205 9985 c-147 -32 -253 -93 -372 -213 -258 -261 -443 -793 -460
-1322 -8 -276 29 -441 130 -583 71 -99 161 -160 284 -192 84 -22 261 -20 355
4 246 63 500 287 564 496 14 49 234 1467 234 1513 0 17 -28 52 -92 116 -101
100 -186 151 -303 181 -73 19 -256 19 -340 0z"/>
<path d="M15625 9985 c-147 -32 -253 -93 -372 -213 -258 -261 -443 -793 -460
-1322 -8 -276 29 -441 130 -583 71 -99 161 -160 284 -192 84 -22 261 -20 355
4 246 63 500 287 564 496 14 49 234 1467 234 1513 0 17 -28 52 -92 116 -101
100 -186 151 -303 181 -73 19 -256 19 -340 0z"/>
<path d="M3397 10030 c-337 -41 -647 -325 -745 -680 -12 -41 -24 -99 -28 -127
l-7 -53 657 0 c532 0 663 3 689 14 42 17 83 66 97 114 15 55 12 228 -6 302
-48 205 -195 367 -375 413 -73 20 -200 27 -282 17z"/>
</g>
</svg>
